<mxfile host="65bd71144e">
    <diagram id="ZQF833xw1EoGUe7-4v3m" name="Page-1">
        <mxGraphModel dx="1776" dy="1220" grid="1" gridSize="10" guides="1" tooltips="1" connect="1" arrows="1" fold="1" page="1" pageScale="1" pageWidth="850" pageHeight="1100" math="0" shadow="0">
            <root>
                <mxCell id="0"/>
                <mxCell id="1" parent="0"/>
                <mxCell id="241" value="" style="whiteSpace=wrap;html=1;shadow=0;glass=0;sketch=0;opacity=50;fillColor=#f5f5f5;strokeColor=#666666;fontColor=#333333;" parent="1" vertex="1">
                    <mxGeometry x="280" y="380" width="860" height="560" as="geometry"/>
                </mxCell>
                <mxCell id="45" value="&lt;b&gt;User&lt;/b&gt;" style="rounded=1;whiteSpace=wrap;html=1;fillColor=#ffe6cc;strokeColor=#d79b00;opacity=80;" parent="1" vertex="1">
                    <mxGeometry x="130" y="340" width="90" height="610" as="geometry"/>
                </mxCell>
                <mxCell id="217" value="Complaints verification" style="edgeStyle=orthogonalEdgeStyle;html=1;exitX=0;exitY=0.5;exitDx=0;exitDy=0;entryX=0.5;entryY=1;entryDx=0;entryDy=0;endArrow=classic;endFill=1;startArrow=classic;startFill=1;" parent="1" source="85" target="114" edge="1">
                    <mxGeometry relative="1" as="geometry">
                        <mxPoint as="offset"/>
                    </mxGeometry>
                </mxCell>
                <mxCell id="85" value="Database" style="rounded=1;whiteSpace=wrap;html=1;fillColor=#f5f5f5;strokeColor=#666666;gradientColor=#b3b3b3;" parent="1" vertex="1">
                    <mxGeometry x="720" y="400" width="140" height="80" as="geometry"/>
                </mxCell>
                <mxCell id="99" value="Reserve seats / confirm reservation" style="edgeStyle=orthogonalEdgeStyle;html=1;exitX=0.5;exitY=0;exitDx=0;exitDy=0;entryX=0.5;entryY=1;entryDx=0;entryDy=0;startArrow=classic;startFill=1;" parent="1" source="89" target="90" edge="1">
                    <mxGeometry relative="1" as="geometry">
                        <mxPoint as="offset"/>
                    </mxGeometry>
                </mxCell>
                <mxCell id="100" value="Payment info / authorization" style="edgeStyle=orthogonalEdgeStyle;html=1;exitX=0.5;exitY=1;exitDx=0;exitDy=0;entryX=0;entryY=0.5;entryDx=0;entryDy=0;startArrow=classic;startFill=1;" parent="1" source="89" target="91" edge="1">
                    <mxGeometry relative="1" as="geometry">
                        <Array as="points">
                            <mxPoint x="380" y="850"/>
                        </Array>
                    </mxGeometry>
                </mxCell>
                <mxCell id="101" style="edgeStyle=none;html=1;exitX=1;exitY=0.5;exitDx=0;exitDy=0;entryX=0;entryY=0.5;entryDx=0;entryDy=0;startArrow=classic;startFill=1;" parent="1" source="89" target="92" edge="1">
                    <mxGeometry relative="1" as="geometry"/>
                </mxCell>
                <mxCell id="227" value="Input departure and arrival /&lt;br&gt;&amp;nbsp;output routes alternatives" style="edgeLabel;html=1;align=center;verticalAlign=middle;resizable=0;points=[];overflow=visible;perimeter=rectanglePerimeter;container=0;imageAspect=1;" parent="101" vertex="1" connectable="0">
                    <mxGeometry x="0.5479" y="1" relative="1" as="geometry">
                        <mxPoint x="-68" y="1" as="offset"/>
                    </mxGeometry>
                </mxCell>
                <mxCell id="102" style="edgeStyle=orthogonalEdgeStyle;html=1;exitX=1;exitY=0.25;exitDx=0;exitDy=0;entryX=0;entryY=0.75;entryDx=0;entryDy=0;startArrow=classic;startFill=1;" parent="1" source="89" target="93" edge="1">
                    <mxGeometry relative="1" as="geometry">
                        <Array as="points">
                            <mxPoint x="570" y="700"/>
                            <mxPoint x="570" y="600"/>
                        </Array>
                    </mxGeometry>
                </mxCell>
                <mxCell id="226" value="Create and interact with &lt;br&gt;account&lt;br&gt;" style="edgeLabel;html=1;align=center;verticalAlign=middle;resizable=0;points=[];" parent="102" vertex="1" connectable="0">
                    <mxGeometry x="0.0585" y="2" relative="1" as="geometry">
                        <mxPoint y="21" as="offset"/>
                    </mxGeometry>
                </mxCell>
                <mxCell id="219" value="Type / display" style="html=1;exitX=0;exitY=0.5;exitDx=0;exitDy=0;entryX=0.989;entryY=0.623;entryDx=0;entryDy=0;entryPerimeter=0;edgeStyle=orthogonalEdgeStyle;startArrow=classic;startFill=1;" parent="1" source="89" target="45" edge="1">
                    <mxGeometry relative="1" as="geometry">
                        <mxPoint x="250" y="720" as="targetPoint"/>
                    </mxGeometry>
                </mxCell>
                <mxCell id="89" value="Terminal / app / website" style="rounded=1;whiteSpace=wrap;html=1;fillColor=#eeeeee;strokeColor=#36393d;" parent="1" vertex="1">
                    <mxGeometry x="310" y="680" width="140" height="80" as="geometry"/>
                </mxCell>
                <mxCell id="105" value="Ask for available seats / lock and reserve seats&amp;nbsp;" style="edgeStyle=orthogonalEdgeStyle;html=1;exitX=1;exitY=0.25;exitDx=0;exitDy=0;entryX=0;entryY=0.75;entryDx=0;entryDy=0;startArrow=classic;startFill=1;" parent="1" source="90" target="85" edge="1">
                    <mxGeometry relative="1" as="geometry">
                        <mxPoint as="offset"/>
                    </mxGeometry>
                </mxCell>
                <mxCell id="90" value="Bookings" style="rounded=1;whiteSpace=wrap;html=1;fillColor=#eeeeee;strokeColor=#36393d;" parent="1" vertex="1">
                    <mxGeometry x="310" y="540" width="140" height="80" as="geometry"/>
                </mxCell>
                <mxCell id="104" value="Log payments" style="edgeStyle=orthogonalEdgeStyle;html=1;exitX=1;exitY=0.5;exitDx=0;exitDy=0;entryX=1;entryY=0.5;entryDx=0;entryDy=0;" parent="1" source="91" target="85" edge="1">
                    <mxGeometry relative="1" as="geometry">
                        <Array as="points">
                            <mxPoint x="1070" y="850"/>
                            <mxPoint x="1070" y="440"/>
                        </Array>
                        <mxPoint as="offset"/>
                    </mxGeometry>
                </mxCell>
                <mxCell id="112" value="Checks authorizations,&lt;br&gt;&amp;nbsp;process payments" style="edgeStyle=orthogonalEdgeStyle;html=1;exitX=0.5;exitY=1;exitDx=0;exitDy=0;entryX=0.5;entryY=0;entryDx=0;entryDy=0;startArrow=classic;startFill=1;" parent="1" source="91" target="111" edge="1">
                    <mxGeometry relative="1" as="geometry"/>
                </mxCell>
                <mxCell id="91" value="Payments" style="rounded=1;whiteSpace=wrap;html=1;fillColor=#f5f5f5;strokeColor=#666666;gradientColor=#b3b3b3;" parent="1" vertex="1">
                    <mxGeometry x="720" y="810" width="140" height="80" as="geometry"/>
                </mxCell>
                <mxCell id="106" style="edgeStyle=orthogonalEdgeStyle;html=1;exitX=1;exitY=0.5;exitDx=0;exitDy=0;entryX=1;entryY=0.75;entryDx=0;entryDy=0;startArrow=classic;startFill=1;" parent="1" source="92" target="85" edge="1">
                    <mxGeometry relative="1" as="geometry">
                        <Array as="points">
                            <mxPoint x="900" y="720"/>
                            <mxPoint x="900" y="460"/>
                        </Array>
                    </mxGeometry>
                </mxCell>
                <mxCell id="223" value="Requests timetable&lt;br&gt;&amp;nbsp;and station owner" style="edgeLabel;html=1;align=center;verticalAlign=middle;resizable=0;points=[];labelBackgroundColor=default;labelBorderColor=none;" parent="106" vertex="1" connectable="0">
                    <mxGeometry x="-0.3785" y="1" relative="1" as="geometry">
                        <mxPoint as="offset"/>
                    </mxGeometry>
                </mxCell>
                <mxCell id="92" value="Routes" style="rounded=1;whiteSpace=wrap;html=1;fillColor=#f5f5f5;strokeColor=#666666;gradientColor=#b3b3b3;" parent="1" vertex="1">
                    <mxGeometry x="718.75" y="680" width="140" height="80" as="geometry"/>
                </mxCell>
                <mxCell id="167" value="Periodic payments,&lt;br&gt;subcriptions /&lt;br&gt;&amp;nbsp;confirmation" style="edgeStyle=orthogonalEdgeStyle;html=1;exitX=1;exitY=0.5;exitDx=0;exitDy=0;entryX=1;entryY=0.25;entryDx=0;entryDy=0;startArrow=classic;startFill=1;" parent="1" source="93" target="91" edge="1">
                    <mxGeometry relative="1" as="geometry">
                        <mxPoint x="750" y="1010" as="targetPoint"/>
                        <Array as="points">
                            <mxPoint x="960" y="580"/>
                            <mxPoint x="960" y="830"/>
                        </Array>
                    </mxGeometry>
                </mxCell>
                <mxCell id="218" value="Check authorizations &lt;br&gt;/ log account data" style="edgeStyle=orthogonalEdgeStyle;html=1;exitX=0.5;exitY=0;exitDx=0;exitDy=0;entryX=0.5;entryY=1;entryDx=0;entryDy=0;startArrow=classic;startFill=1;" parent="1" source="93" target="85" edge="1">
                    <mxGeometry relative="1" as="geometry"/>
                </mxCell>
                <mxCell id="93" value="Accounts (Subs)" style="rounded=1;whiteSpace=wrap;html=1;fillColor=#f5f5f5;strokeColor=#666666;gradientColor=#b3b3b3;" parent="1" vertex="1">
                    <mxGeometry x="720" y="540" width="140" height="80" as="geometry"/>
                </mxCell>
                <mxCell id="111" value="&lt;b&gt;Bank&lt;/b&gt;" style="rounded=1;whiteSpace=wrap;html=1;fillColor=#ffe6cc;strokeColor=#d79b00;opacity=80;" parent="1" vertex="1">
                    <mxGeometry x="437.5" y="980" width="702.5" height="80" as="geometry"/>
                </mxCell>
                <mxCell id="114" value="Customer service" style="rounded=1;whiteSpace=wrap;html=1;fillColor=#ffe6cc;strokeColor=#d79b00;opacity=80;" parent="1" vertex="1">
                    <mxGeometry x="280" y="250" width="140" height="80" as="geometry"/>
                </mxCell>
                <mxCell id="216" value="Updates timetable / requests data for analysis" style="edgeStyle=orthogonalEdgeStyle;html=1;exitX=0.5;exitY=1;exitDx=0;exitDy=0;entryX=0.5;entryY=0;entryDx=0;entryDy=0;startArrow=classic;startFill=1;" parent="1" source="215" target="85" edge="1">
                    <mxGeometry relative="1" as="geometry"/>
                </mxCell>
                <mxCell id="215" value="&lt;b&gt;Tycoon&lt;/b&gt;" style="rounded=1;whiteSpace=wrap;html=1;fillColor=#ffe6cc;strokeColor=#d79b00;opacity=80;" parent="1" vertex="1">
                    <mxGeometry x="437.5" y="250" width="702.5" height="80" as="geometry"/>
                </mxCell>
                <mxCell id="238" value="&lt;h1&gt;Functional view - TRIP System&lt;/h1&gt;" style="text;strokeColor=none;align=left;fillColor=none;html=1;verticalAlign=middle;whiteSpace=wrap;rounded=0;" parent="1" vertex="1">
                    <mxGeometry x="130" y="180" width="670" height="30" as="geometry"/>
                </mxCell>
                <mxCell id="243" value="&lt;h1&gt;&lt;b&gt;&lt;font color=&quot;#080808&quot;&gt;TRIP SYSTEM&lt;/font&gt;&lt;/b&gt;&lt;/h1&gt;" style="edgeLabel;html=1;align=center;verticalAlign=middle;resizable=0;points=[];labelBackgroundColor=none;" parent="1" vertex="1" connectable="0">
                    <mxGeometry x="1070" y="390" as="geometry">
                        <mxPoint x="-16" y="15" as="offset"/>
                    </mxGeometry>
                </mxCell>
                <mxCell id="262" value="Payments" style="rounded=1;whiteSpace=wrap;html=1;fillColor=#f5f5f5;strokeColor=#666666;gradientColor=#b3b3b3;" parent="1" vertex="1">
                    <mxGeometry x="720" y="810" width="140" height="80" as="geometry"/>
                </mxCell>
                <mxCell id="263" value="Routes" style="rounded=1;whiteSpace=wrap;html=1;fillColor=#f5f5f5;strokeColor=#666666;gradientColor=#b3b3b3;" parent="1" vertex="1">
                    <mxGeometry x="718.75" y="680" width="140" height="80" as="geometry"/>
                </mxCell>
                <mxCell id="274" value="Payments" style="rounded=1;whiteSpace=wrap;html=1;fillColor=#eeeeee;strokeColor=#36393d;" parent="1" vertex="1">
                    <mxGeometry x="720" y="810" width="140" height="80" as="geometry"/>
                </mxCell>
                <mxCell id="275" value="Routes" style="rounded=1;whiteSpace=wrap;html=1;fillColor=#eeeeee;strokeColor=#36393d;" parent="1" vertex="1">
                    <mxGeometry x="718.75" y="680" width="140" height="80" as="geometry"/>
                </mxCell>
                <mxCell id="276" value="Database" style="rounded=1;whiteSpace=wrap;html=1;fillColor=#eeeeee;strokeColor=#36393d;" parent="1" vertex="1">
                    <mxGeometry x="720" y="400" width="140" height="80" as="geometry"/>
                </mxCell>
                <mxCell id="277" value="Accounts (Subs)" style="rounded=1;whiteSpace=wrap;html=1;fillColor=#eeeeee;strokeColor=#36393d;" parent="1" vertex="1">
                    <mxGeometry x="720" y="540" width="140" height="80" as="geometry"/>
                </mxCell>
            </root>
        </mxGraphModel>
    </diagram>
</mxfile>